<?xml version="1.0" encoding="UTF-8"?>
<svg width="473px" height="62px" viewBox="0 0 473 62" version="1.1" xmlns="http://www.w3.org/2000/svg" xmlns:xlink="http://www.w3.org/1999/xlink">
    <title>westrikworld</title>
    <g id="westrikworld" stroke="none" stroke-width="1" fill="none" fill-rule="evenodd">
        <path d="M20.893,43 L31.015,27.292 L40.969,43 L47.899,43 L54.787,15.952 L54.787,13.18 L45.799,13.18 L41.557,29.728 L33.073,16.582 L28.999,16.582 L20.515,29.812 L16.357,13.18 L7.201,13.18 L7.201,15.952 L14.173,43 L20.893,43 Z M90.109,43 L90.109,35.902 L67.807,35.902 L67.807,30.484 L88.303,30.484 L88.303,25.57 L67.807,25.57 L67.807,20.236 L90.109,20.236 L90.109,13.18 L58.273,13.18 L58.273,43 L90.109,43 Z M109.765,43.588 C121.861,43.588 127.321,40.102 127.321,33.55 C127.321,28.384 123.919,24.94 116.023,24.352 L106.405,23.68 C103.885,23.512 103.129,22.84 103.129,21.622 C103.129,19.732 105.271,18.934 111.151,18.934 C115.645,18.934 120.349,19.522 124.969,20.53 L126.271,14.44 C121.441,13.264 116.359,12.592 110.899,12.592 C99.601,12.592 93.637,15.952 93.637,22.588 C93.637,27.67 96.871,30.862 105.313,31.408 L114.175,31.996 C116.653,32.206 117.703,32.878 117.703,34.39 C117.703,36.238 115.771,37.246 109.555,37.246 C104.683,37.246 99.559,36.49 94.981,35.398 L93.679,41.614 C98.719,42.832 103.885,43.588 109.765,43.588 Z M152.437,43 L152.437,20.866 L165.499,20.866 L165.499,13.18 L129.841,13.18 L129.841,20.866 L142.945,20.866 L142.945,43 L152.437,43 Z M178.897,43 L178.897,33.424 L187.087,33.424 L196.285,43 L205.567,43 L205.567,40.144 L197.881,31.912 C202.207,29.854 205.231,26.914 205.231,22.336 C205.231,17.17 201.745,13.18 194.143,13.18 L169.405,13.18 L169.405,43 L178.897,43 Z M192.967,27.544 L178.897,27.544 L178.897,20.11 L191.917,20.11 C194.437,20.11 195.823,21.454 195.823,23.68 C195.823,25.486 194.689,26.746 192.967,27.544 Z M219.133,43 L219.133,13.18 L209.599,13.18 L209.599,43 L219.133,43 Z M233.833,43 L233.833,31.114 L237.949,31.114 L250.087,43 L260.083,43 L260.083,40.186 L246.391,26.956 L259.747,15.952 L259.747,13.18 L250.171,13.18 L233.833,26.746 L233.833,13.18 L224.383,13.18 L224.383,43 L233.833,43 Z M275.329,43 L285.451,27.292 L295.405,43 L302.335,43 L309.223,15.952 L309.223,13.18 L300.235,13.18 L295.993,29.728 L287.509,16.582 L283.435,16.582 L274.951,29.812 L270.793,13.18 L261.637,13.18 L261.637,15.952 L268.609,43 L275.329,43 Z M331.399,43.546 C344.041,43.546 351.349,37.414 351.30718,28.048 C351.265,18.64 344.083,12.634 331.399,12.634 C318.673,12.634 311.407,18.64 311.407,28.048 C311.407,37.456 318.631,43.546 331.399,43.546 Z M331.441,36.196 C324.847,36.196 320.899,33.13 320.899,28.048 C320.899,22.924 324.805,19.984 331.441,19.942 C337.783,19.9 341.815,22.966 341.815,28.048 C341.815,33.088 337.867,36.196 331.441,36.196 Z M364.747,43 L364.747,33.424 L372.937,33.424 L382.135,43 L391.417,43 L391.417,40.144 L383.731,31.912 C388.057,29.854 391.081,26.914 391.081,22.336 C391.081,17.17 387.595,13.18 379.993,13.18 L355.255,13.18 L355.255,43 L364.747,43 Z M378.817,27.544 L364.747,27.544 L364.747,20.11 L377.767,20.11 C380.287,20.11 381.673,21.454 381.673,23.68 C381.673,25.486 380.539,26.746 378.817,27.544 Z M425.017,43 L425.017,35.272 L404.941,35.272 L404.941,13.18 L395.449,13.18 L395.449,43 L425.017,43 Z M447.571,43 C460.423,43 465.337,35.44 465.337,28.174 C465.337,19.27 459.163,13.18 447.781,13.18 L428.923,13.18 L428.923,43 L447.571,43 Z M447.277,35.692 L438.415,35.692 L438.415,20.446 L447.319,20.446 C452.611,20.446 455.719,23.05 455.719,28.174 C455.719,32.92 452.779,35.692 447.277,35.692 Z" id="WESTRIKWORLD" stroke="#FFFFFF" stroke-width="3" fill="#000000" fill-rule="nonzero"></path>
        <path d="M20.893,43 L31.015,27.292 L40.969,43 L47.899,43 L54.787,15.952 L54.787,13.18 L45.799,13.18 L41.557,29.728 L33.073,16.582 L28.999,16.582 L20.515,29.812 L16.357,13.18 L7.201,13.18 L7.201,15.952 L14.173,43 L20.893,43 Z M90.109,43 L90.109,35.902 L67.807,35.902 L67.807,30.484 L88.303,30.484 L88.303,25.57 L67.807,25.57 L67.807,20.236 L90.109,20.236 L90.109,13.18 L58.273,13.18 L58.273,43 L90.109,43 Z M109.765,43.588 C121.861,43.588 127.321,40.102 127.321,33.55 C127.321,28.384 123.919,24.94 116.023,24.352 L106.405,23.68 C103.885,23.512 103.129,22.84 103.129,21.622 C103.129,19.732 105.271,18.934 111.151,18.934 C115.645,18.934 120.349,19.522 124.969,20.53 L126.271,14.44 C121.441,13.264 116.359,12.592 110.899,12.592 C99.601,12.592 93.637,15.952 93.637,22.588 C93.637,27.67 96.871,30.862 105.313,31.408 L114.175,31.996 C116.653,32.206 117.703,32.878 117.703,34.39 C117.703,36.238 115.771,37.246 109.555,37.246 C104.683,37.246 99.559,36.49 94.981,35.398 L93.679,41.614 C98.719,42.832 103.885,43.588 109.765,43.588 Z M152.437,43 L152.437,20.866 L165.499,20.866 L165.499,13.18 L129.841,13.18 L129.841,20.866 L142.945,20.866 L142.945,43 L152.437,43 Z M178.897,43 L178.897,33.424 L187.087,33.424 L196.285,43 L205.567,43 L205.567,40.144 L197.881,31.912 C202.207,29.854 205.231,26.914 205.231,22.336 C205.231,17.17 201.745,13.18 194.143,13.18 L169.405,13.18 L169.405,43 L178.897,43 Z M192.967,27.544 L178.897,27.544 L178.897,20.11 L191.917,20.11 C194.437,20.11 195.823,21.454 195.823,23.68 C195.823,25.486 194.689,26.746 192.967,27.544 Z M219.133,43 L219.133,13.18 L209.599,13.18 L209.599,43 L219.133,43 Z M233.833,43 L233.833,31.114 L237.949,31.114 L250.087,43 L260.083,43 L260.083,40.186 L246.391,26.956 L259.747,15.952 L259.747,13.18 L250.171,13.18 L233.833,26.746 L233.833,13.18 L224.383,13.18 L224.383,43 L233.833,43 Z M275.329,43 L285.451,27.292 L295.405,43 L302.335,43 L309.223,15.952 L309.223,13.18 L300.235,13.18 L295.993,29.728 L287.509,16.582 L283.435,16.582 L274.951,29.812 L270.793,13.18 L261.637,13.18 L261.637,15.952 L268.609,43 L275.329,43 Z M331.399,43.546 C344.041,43.546 351.349,37.414 351.30718,28.048 C351.265,18.64 344.083,12.634 331.399,12.634 C318.673,12.634 311.407,18.64 311.407,28.048 C311.407,37.456 318.631,43.546 331.399,43.546 Z M331.441,36.196 C324.847,36.196 320.899,33.13 320.899,28.048 C320.899,22.924 324.805,19.984 331.441,19.942 C337.783,19.9 341.815,22.966 341.815,28.048 C341.815,33.088 337.867,36.196 331.441,36.196 Z M364.747,43 L364.747,33.424 L372.937,33.424 L382.135,43 L391.417,43 L391.417,40.144 L383.731,31.912 C388.057,29.854 391.081,26.914 391.081,22.336 C391.081,17.17 387.595,13.18 379.993,13.18 L355.255,13.18 L355.255,43 L364.747,43 Z M378.817,27.544 L364.747,27.544 L364.747,20.11 L377.767,20.11 C380.287,20.11 381.673,21.454 381.673,23.68 C381.673,25.486 380.539,26.746 378.817,27.544 Z M425.017,43 L425.017,35.272 L404.941,35.272 L404.941,13.18 L395.449,13.18 L395.449,43 L425.017,43 Z M447.571,43 C460.423,43 465.337,35.44 465.337,28.174 C465.337,19.27 459.163,13.18 447.781,13.18 L428.923,13.18 L428.923,43 L447.571,43 Z M447.277,35.692 L438.415,35.692 L438.415,20.446 L447.319,20.446 C452.611,20.446 455.719,23.05 455.719,28.174 C455.719,32.92 452.779,35.692 447.277,35.692 Z" id="WESTRIKWORLD" fill="#000000" fill-rule="nonzero"></path>
    </g>
</svg>
