<?xml version="1.0" encoding="UTF-8"?>
<svg width="32px" height="32px" viewBox="0 0 32 32" version="1.1" xmlns="http://www.w3.org/2000/svg" xmlns:xlink="http://www.w3.org/1999/xlink">
    <title>Icon Artwork</title>
    <defs>
        <linearGradient x1="50%" y1="100%" x2="50%" y2="3.061617e-15%" id="linearGradient-1">
            <stop stop-color="#000000" offset="0%"></stop>
            <stop stop-color="#2C2C2C" offset="100%"></stop>
        </linearGradient>
    </defs>
    <g id="Icon-Artwork" stroke="none" stroke-width="1" fill="none" fill-rule="evenodd">
        <rect id="Gradient" fill="url(#linearGradient-1)" x="0" y="0" width="32" height="32"></rect>
        <g id="WW-ICON" transform="translate(9.000000, 9.000000)" fill="#E8E8E8" fill-rule="nonzero">
            <g id="Group">
                <polygon id="W" points="13.3437276 1.36416 13.3437276 0.6384 11.1754076 0.6384 9.78 4.097 7.53764758 1.4 6.48036758 1.4 4.217 4.116 2.88740758 0.6384 0.656367578 0.6384 0.656367578 1.36416 2.80676758 7 4.285 7 7.012 3.677 9.64324758 7 11.2112476 7"></polygon>
                <polygon id="W" points="13.796851 7.9616 13.796851 7.184 11.473651 7.184 9.979 10.89 7.57605098 8 6.44325098 8 4.018 10.911 2.59365098 7.184 0.203250977 7.184 0.203250977 7.9616 2.50725098 14 4.091 14 7.013 10.439 9.83205098 14 11.512051 14"></polygon>
            </g>
        </g>
    </g>
</svg>